Coordinates
version=1
nRows=32
nColumns=12
inDegrees=yes

Units are S.I. units (second, meters, Newtons, ...)
Angles are in degrees

endheader
time	SC_y	SC_z	SC_x	AC_y	AC_z	AC_x	GH_y	GH_z	GH_yy	EL_x	PS_y
       0.0              -11.58          30.69          76.54          54.84        -0.6719         -7.757         -128.1          1.123         -92.27          82.11          61.17
   0.03799              -11.58          30.69          76.54          54.84        -0.6733         -7.758         -128.1           1.13         -92.24          82.12          61.18
   0.07598              -11.59          30.69          76.53          54.84        -0.6748          -7.76         -128.1          1.137         -92.21          82.12          61.19
     0.114              -11.59          30.69          76.52          54.83        -0.6764         -7.762         -128.1          1.144         -92.18          82.13           61.2
     0.152              -11.59          30.69          76.51          54.83        -0.6781         -7.764         -128.0          1.152         -92.15          82.14          61.21
      0.19              -11.59          30.68          76.51          54.83        -0.6799         -7.766         -128.0          1.161         -92.11          82.14          61.22
     0.228               -11.6          30.68           76.5          54.83        -0.6819         -7.769         -128.0           1.17         -92.07          82.15          61.24
    0.2659               -11.6          30.68          76.49          54.82         -0.684         -7.771         -128.0          1.179         -92.03          82.16          61.25
    0.3039               -11.6          30.68          76.48          54.82        -0.6862         -7.774         -127.9           1.19         -91.98          82.17          61.26
    0.3419              -11.61          30.67          76.47          54.82        -0.6886         -7.777         -127.9          1.201         -91.94          82.18          61.28
    0.3799              -11.61          30.67          76.46          54.81        -0.6911          -7.78         -127.8          1.213         -91.89          82.19           61.3
    0.4179              -11.62          30.67          76.45          54.81        -0.6939         -7.784         -127.8          1.225         -91.83           82.2          61.31
    0.4559              -11.62          30.66          76.43          54.81        -0.6969         -7.787         -127.7          1.239         -91.77          82.21          61.33
    0.4939              -11.62          30.66          76.42           54.8        -0.7001         -7.791         -127.7          1.254         -91.71          82.22          61.35
    0.5319              -11.63          30.66          76.41           54.8        -0.7036         -7.795         -127.6           1.27         -91.64          82.24          61.37
    0.5699              -11.64          30.65          76.39          54.79        -0.7074           -7.8         -127.6          1.288         -91.56          82.25           61.4
    0.6079              -11.64          30.65          76.37          54.79        -0.7115         -7.805         -127.5          1.306         -91.48          82.27          61.42
    0.6459              -11.65          30.64          76.35          54.78        -0.7159         -7.811         -127.4          1.327         -91.39          82.28          61.45
    0.6839              -11.65          30.64          76.33          54.78        -0.7208         -7.817         -127.4           1.35         -91.29           82.3          61.48
    0.7219              -11.66          30.63          76.31          54.77        -0.7261         -7.823         -127.3          1.374         -91.18          82.33          61.52
    0.7598              -11.67          30.63          76.29          54.76         -0.732          -7.83         -127.2          1.402         -91.07          82.35          61.56
    0.7978              -11.68          30.62          76.26          54.75        -0.7385         -7.838         -127.1          1.431         -90.94          82.37           61.6
    0.8358              -11.69          30.61          76.23          54.74        -0.7456         -7.847         -127.0          1.464         -90.79           82.4          61.64
    0.8738               -11.7           30.6          76.19          54.73        -0.7535         -7.857         -126.9          1.501         -90.64          82.43          61.69
    0.9118              -11.72          30.59          76.16          54.72        -0.7623         -7.868         -126.7          1.542         -90.46          82.47          61.75
    0.9498              -11.73          30.58          76.12          54.71        -0.7721          -7.88         -126.6          1.587         -90.26          82.51          61.81
    0.9878              -11.75          30.57          76.07          54.69        -0.7831         -7.893         -126.4          1.638         -90.04          82.55          61.88
     1.026              -11.76          30.56          76.02          54.68        -0.7954         -7.908         -126.2          1.695          -89.8           82.6          61.96
     1.064              -11.79          30.54          75.96          54.66        -0.8094         -7.926         -126.0          1.759         -89.52          82.65          62.05
     1.102              -11.81          30.53          75.89          54.64        -0.8252         -7.945         -125.7          1.833          -89.2          82.72          62.15
      1.14              -11.84          30.51          75.81          54.61        -0.8433         -7.967         -125.4          1.916         -88.84          82.79          62.26
     1.178              -11.87          30.48          75.72          54.59         -0.864         -7.993         -125.1          2.012         -88.42          82.87          62.39
